<svg width="212" height="104" viewBox="0 0 212 104" fill="none" xmlns="http://www.w3.org/2000/svg">
<path d="M95.0568 58.1968L95.0643 58.2004L95.0718 58.204C97.61 59.396 100.208 60 102.856 60C106.004 60 108.752 59.2714 111.051 57.7656C113.31 56.2863 115.04 54.3247 116.231 51.8957C117.413 49.483 118 46.866 118 44.0592C118 41.7073 117.683 39.6354 117.018 37.868C116.364 36.0823 115.437 34.5367 114.228 33.2479C113.067 31.9701 111.649 30.9158 109.986 30.0794L105.282 27.5703L105.281 27.5699C104.177 26.982 103.183 26.4655 102.3 26.0208C101.565 25.5873 101.01 25.1097 100.61 24.5988C100.253 24.0988 100.062 23.4993 100.062 22.7574C100.062 21.5926 100.408 20.8356 100.986 20.3287L100.986 20.3287L100.993 20.3221C101.652 19.7329 102.564 19.3935 103.834 19.3935C104.923 19.3935 106.034 19.6683 107.176 20.247L107.176 20.2471L107.187 20.2523C108.383 20.8405 109.564 21.6877 110.729 22.8114L111.613 23.6642L112.268 22.6257L116.753 15.5251L117.138 14.9161L116.682 14.3583C115.025 12.3306 113.073 10.7581 110.829 9.65569C108.589 8.55547 106.254 8 103.834 8C101.051 8 98.5564 8.7131 96.3861 10.1607C94.248 11.5376 92.564 13.3911 91.3384 15.702C90.1012 17.9851 89.4949 20.5673 89.4949 23.4231C89.4949 25.8375 89.854 27.9903 90.6012 29.8594L90.6067 29.8731L90.6126 29.8866C91.3838 31.662 92.3872 33.1961 93.6298 34.475L93.643 34.4885L93.6566 34.5015C94.8985 35.6869 96.2095 36.6746 97.5906 37.4584L97.6011 37.4644L97.6118 37.4701L102.441 40.0589L102.444 40.0602C103.543 40.6454 104.483 41.1777 105.266 41.6575C105.974 42.091 106.468 42.5622 106.793 43.0554L106.815 43.0884L106.839 43.1196C107.119 43.4797 107.318 44.05 107.318 44.9467C107.318 46.155 106.955 47.0081 106.307 47.6244L106.299 47.6321L106.291 47.6399C105.712 48.2151 104.7 48.6065 103.029 48.6065C101.59 48.6065 100.069 48.2556 98.4573 47.5204C96.9021 46.7449 95.4949 45.6474 94.2362 44.2132L93.3536 43.2075L92.6391 44.3388L88.1545 51.4394L87.7717 52.0455L88.2228 52.6027C90.2187 55.0675 92.4952 56.9414 95.0568 58.1968Z" fill="#2AB1F0" stroke="#347DB1" stroke-width="2"/>
<rect x="120" y="51" width="6" height="6" rx="1" fill="#2AB1F0" stroke="#347DB1" stroke-width="2"/>
<rect x="172" y="50" width="4" height="6" rx="1" fill="#2AB1F0" stroke="#347DB1" stroke-width="2"/>
<path d="M186.057 58.1968L186.064 58.2004L186.072 58.204C188.61 59.396 191.208 60 193.856 60C197.004 60 199.752 59.2714 202.051 57.7656C204.31 56.2863 206.04 54.3247 207.231 51.8957C208.413 49.483 209 46.866 209 44.0592C209 41.7073 208.683 39.6354 208.018 37.868C207.364 36.0823 206.437 34.5367 205.228 33.2479C204.067 31.9701 202.649 30.9158 200.986 30.0794L196.282 27.5703L196.281 27.5699C195.177 26.982 194.183 26.4655 193.3 26.0208C192.565 25.5873 192.01 25.1097 191.61 24.5988C191.253 24.0988 191.062 23.4993 191.062 22.7574C191.062 21.5926 191.408 20.8356 191.986 20.3287L191.986 20.3287L191.993 20.3221C192.652 19.7329 193.564 19.3935 194.834 19.3935C195.923 19.3935 197.034 19.6683 198.176 20.247L198.176 20.2471L198.187 20.2524C199.383 20.8405 200.564 21.6877 201.729 22.8114L202.613 23.6642L203.268 22.6257L207.753 15.5251L208.138 14.9161L207.682 14.3583C206.025 12.3306 204.073 10.7581 201.829 9.65569C199.589 8.55547 197.254 8 194.834 8C192.051 8 189.556 8.7131 187.386 10.1607C185.248 11.5377 183.564 13.3911 182.338 15.7021C181.101 17.9851 180.495 20.5673 180.495 23.4231C180.495 25.8375 180.854 27.9903 181.601 29.8594L181.607 29.8731L181.613 29.8866C182.384 31.662 183.387 33.1961 184.63 34.475L184.643 34.4885L184.657 34.5015C185.899 35.6869 187.21 36.6746 188.591 37.4585L188.601 37.4644L188.612 37.4701L193.441 40.0589L193.444 40.0602C194.543 40.6454 195.483 41.1777 196.266 41.6575C196.974 42.091 197.468 42.5622 197.793 43.0554L197.815 43.0884L197.839 43.1196C198.119 43.4797 198.318 44.05 198.318 44.9467C198.318 46.155 197.955 47.0081 197.307 47.6244L197.299 47.6321L197.291 47.6399C196.712 48.2151 195.7 48.6065 194.029 48.6065C192.59 48.6065 191.069 48.2556 189.457 47.5204C187.902 46.7449 186.495 45.6474 185.236 44.2132L184.354 43.2075L183.639 44.3388L179.155 51.4394L178.772 52.0455L179.223 52.6027C181.219 55.0675 183.495 56.9414 186.057 58.1968Z" fill="#2AB1F0" stroke="#347DB1" stroke-width="2"/>
<path d="M152.818 54.1152L146.895 43.4543C144.383 43.8344 142.771 45.3122 141.806 46.6155L145.567 44.6228V46.1773L149.142 53.4792C149.482 53.6739 150.265 53.9465 150.674 53.4792C151.184 52.8951 152.308 56.4 151.899 55.9619C151.763 56.9841 151.47 58.8826 151.389 58.2985C151.307 57.7143 149.857 58.4445 149.142 58.8826L141.806 46.6155C141.288 47.3153 140.957 47.9648 140.773 48.3668C143.548 52.8929 147.405 59.7588 147.405 59.7588C149.779 60.7811 152.614 58.3295 153.441 56.5978L152.818 54.1152Z" fill="#2AB1F0"/>
<path d="M136.241 50.6848L140.773 48.3668C140.047 47.6825 139.409 46.9484 138.85 46.1773L135.069 48.2388C127.846 43.0764 130.861 32.4486 130.962 32.3038C131.064 32.1577 134.059 30.2063 135.607 29.3036C135.781 28.1642 136.005 27.1594 136.241 26.3463L131.426 29.3036L129.982 30.9016C129.331 31.8905 128.924 33.8506 128.913 35.4049C128.909 35.8442 128.922 36.2893 128.948 36.7366C129.256 42.0174 131.426 47.6079 131.426 47.6079C131.426 47.6079 132.767 49.9325 136.241 50.6848Z" fill="#2AB1F0"/>
<path d="M128.486 43.4543C129.221 46.9592 130.753 47.6838 131.426 47.6079C131.426 47.6079 129.256 42.0174 128.948 36.7366C128.083 38.0683 127.567 39.0732 128.486 43.4543Z" fill="#2AB1F0"/>
<path fill-rule="evenodd" clip-rule="evenodd" d="M159.253 33.326C163.542 32.4498 164.36 17.1159 155.474 21.2049C155.549 21.8101 155.661 22.5613 155.808 23.3955L157.517 22.3732C157.448 24.223 157.803 28.39 159.764 30.2592L158.087 31.4275C158.442 32.1851 158.831 32.8385 159.253 33.326ZM160.683 27.6306C160.07 27.9226 158.334 24.5638 159.559 23.3955C160.376 22.6166 161.704 26.4623 160.683 27.6306Z" fill="#2AB1F0"/>
<path d="M137.477 27.2156L136.241 26.3463C136.005 27.1594 135.781 28.1642 135.607 29.3036C134.896 33.9849 135.05 40.9363 138.85 46.1773C139.409 46.9484 140.047 47.6825 140.773 48.3668C140.957 47.9648 141.288 47.3153 141.806 46.6155C142.771 45.3122 144.383 43.8344 146.895 43.4543C157.108 41.3585 162.589 51.4322 165.994 49.0984C175.461 42.6082 160.172 -0.700718 153.125 1.05173C153.125 1.05173 151.498 1.18916 150.776 1.97977C150.226 2.58204 149.823 3.28563 149.448 4.11852C148.842 5.46327 148.769 6.30909 148.427 7.9155C147.712 11.2744 147.056 13.5778 146.18 15.9476C145.304 18.3173 143.014 21.9351 143.014 21.9351L140.773 24.6079L137.477 27.2156C137.315 27.9542 137.194 28.7981 137.09 29.8211C139.771 28.1468 145.363 27.2156 150.265 7.47739C153.426 5.08355 153.746 4.9957 153.588 5.19798C157.949 3.27261 171.23 39.8622 165.177 44.6228C164.605 44.9733 162.646 46.0272 162.135 45.7351C151.513 36.9729 144.103 41.6361 140.358 44.6228C136.96 41.098 136.63 34.3402 137.09 29.8211C137.194 28.7981 137.315 27.9542 137.477 27.2156Z" fill="#2AB1F0"/>
<path d="M146.895 43.4543L152.818 54.1152L153.441 56.5978C152.614 58.3295 149.779 60.7811 147.405 59.7588C147.405 59.7588 143.548 52.8929 140.773 48.3668M146.895 43.4543C157.108 41.3585 162.589 51.4322 165.994 49.0984C175.461 42.6082 160.172 -0.700718 153.125 1.05173C153.125 1.05173 151.498 1.18916 150.776 1.97977C150.226 2.58204 149.823 3.28563 149.448 4.11852C148.842 5.46327 148.769 6.30909 148.427 7.9155C147.712 11.2744 147.056 13.5778 146.18 15.9476C145.304 18.3173 143.014 21.9351 143.014 21.9351L140.773 24.6079L137.477 27.2156M146.895 43.4543C144.383 43.8344 142.771 45.3122 141.806 46.6155M140.773 48.3668C139.003 49.272 136.241 50.6848 136.241 50.6848M140.773 48.3668C140.957 47.9648 141.288 47.3153 141.806 46.6155M140.773 48.3668C140.047 47.6825 139.409 46.9484 138.85 46.1773M140.773 48.3668L136.241 50.6848M136.241 50.6848C132.767 49.9325 131.426 47.6079 131.426 47.6079M131.426 47.6079C130.753 47.6838 129.221 46.9592 128.486 43.4543C127.567 39.0732 128.083 38.0683 128.948 36.7366M131.426 47.6079C131.426 47.6079 129.256 42.0174 128.948 36.7366M136.241 26.3464L137.477 27.2156M136.241 26.3464L131.426 29.3036L129.982 30.9016C129.331 31.8905 128.924 33.8506 128.913 35.4049C128.909 35.8442 128.922 36.2893 128.948 36.7366M136.241 26.3464C136.005 27.1594 135.781 28.1642 135.607 29.3036M137.477 27.2156C137.315 27.9542 137.194 28.7981 137.09 29.8211M153.431 5.28682C153.199 5.96019 153.016 6.69352 152.877 7.47739C150.987 18.2063 157.591 38.4025 164.155 43.8901C164.496 44.1751 164.837 44.4205 165.177 44.6228M153.431 5.28682C153.08 5.66764 153.47 5.35042 153.588 5.19798M153.431 5.28682C153.482 5.25127 153.535 5.2217 153.588 5.19798M165.177 44.6228C164.605 44.9733 162.646 46.0272 162.135 45.7351C151.513 36.9729 144.103 41.6361 140.358 44.6228C136.96 41.098 136.63 34.3402 137.09 29.8211M165.177 44.6228C171.23 39.8622 157.949 3.27261 153.588 5.19798M155.808 23.3955C155.661 22.5613 155.549 21.8101 155.474 21.2049C164.36 17.1159 163.542 32.4498 159.253 33.326C158.831 32.8385 158.442 32.1851 158.087 31.4275M155.808 23.3955L157.517 22.3732C157.448 24.223 157.803 28.39 159.764 30.2592L158.087 31.4275M155.808 23.3955C156.25 25.8944 157.014 29.1375 158.087 31.4275M137.09 29.8211C139.771 28.1468 145.363 27.2156 150.265 7.47739C153.426 5.08355 153.746 4.9957 153.588 5.19798M141.806 46.6155L145.567 44.6228V46.1773L149.142 53.4792C149.482 53.6739 150.265 53.9465 150.674 53.4792C151.184 52.8951 152.308 56.4 151.899 55.9619C151.763 56.9841 151.47 58.8826 151.389 58.2985C151.307 57.7143 149.857 58.4445 149.142 58.8826L141.806 46.6155ZM148.222 50.2664L149.448 52.4569H149.754V52.0188L148.631 49.8283L148.222 49.6822L148.186 50.2664M135.607 29.3036C134.059 30.2063 131.064 32.1577 130.962 32.3038C130.861 32.4486 127.846 43.0764 135.069 48.2388M135.607 29.3036C134.896 33.9849 135.05 40.9363 138.85 46.1773M135.251 48.3668C135.19 48.3245 135.129 48.2818 135.069 48.2388M135.069 48.2388L138.85 46.1773M160.683 27.6306C160.07 27.9226 158.334 24.5638 159.559 23.3955C160.376 22.6166 161.704 26.4623 160.683 27.6306Z" stroke="#347DB1" stroke-width="2"/>
<mask id="path-7-outside-1_6415_2496" maskUnits="userSpaceOnUse" x="0" y="68" width="212" height="36" fill="black">
<rect fill="white" y="68" width="212" height="36"/>
<path d="M13.5825 102C11.7187 102 10.0619 101.732 8.61223 101.195C7.16257 100.627 5.94959 99.7594 4.97329 98.5917C3.99698 97.3925 3.25736 95.8777 2.75442 94.0473C2.25147 92.217 2 90.0394 2 87.5148V70.568H8.56786V88.2249C8.56786 90.1499 8.76016 91.6805 9.14476 92.8166C9.52937 93.9527 10.0915 94.7732 10.8311 95.2781C11.5707 95.7515 12.4879 95.9882 13.5825 95.9882C14.6771 95.9882 15.5943 95.7515 16.3339 95.2781C17.1031 94.7732 17.68 93.9527 18.0646 92.8166C18.4788 91.6805 18.6859 90.1499 18.6859 88.2249V70.568H24.9875V87.5148C24.9875 90.0394 24.736 92.217 24.2331 94.0473C23.7597 95.8777 23.0497 97.3925 22.103 98.5917C21.1562 99.7594 19.9581 100.627 18.5084 101.195C17.0883 101.732 15.4464 102 13.5825 102Z"/>
<path d="M40.531 101.432V70.568H50.9597C53.0011 70.568 54.8649 70.8679 56.5513 71.4675C58.2376 72.0355 59.5837 73.0296 60.5896 74.4497C61.5955 75.8383 62.0984 77.7475 62.0984 80.1775C62.0984 82.5128 61.5955 84.4379 60.5896 85.9527C59.5837 87.4359 58.2376 88.5404 56.5513 89.2663C54.8649 89.9921 53.0011 90.355 50.9597 90.355H47.0545V101.432H40.531ZM47.0545 84.8166H50.4272C52.1431 84.8166 53.4449 84.4221 54.3324 83.6331C55.2495 82.8442 55.7081 81.6923 55.7081 80.1775C55.7081 78.6627 55.2495 77.6055 54.3324 77.0059C53.4449 76.4063 52.1431 76.1065 50.4272 76.1065H47.0545V84.8166ZM56.1962 101.432L49.7615 88.5089L54.288 84.0118L63.5185 101.432H56.1962Z"/>
<path d="M76.631 101.432V70.568H86.5272C88.5389 70.568 90.3436 70.8047 91.9412 71.2781C93.5684 71.7199 94.8405 72.4931 95.7577 73.5976C96.7044 74.7022 97.1777 76.2485 97.1777 78.2367C97.1777 79.783 96.8523 81.1716 96.2014 82.4024C95.5506 83.6016 94.6039 84.4379 93.3613 84.9112V85.1006C95.018 85.4793 96.305 86.2367 97.2221 87.3728C98.1688 88.4773 98.6422 90.0237 98.6422 92.0118C98.6422 94.1894 98.1245 95.9724 97.089 97.3609C96.0831 98.7495 94.737 99.7751 93.0506 100.438C91.3643 101.101 89.4561 101.432 87.326 101.432H76.631ZM83.1545 82.9231H86.2165C87.8141 82.9231 88.9679 82.5917 89.678 81.929C90.4176 81.2663 90.7874 80.3826 90.7874 79.2781C90.7874 78.0789 90.4176 77.2268 89.678 76.7219C88.9383 76.217 87.7993 75.9645 86.2609 75.9645H83.1545V82.9231ZM83.1545 96.0355H86.7934C88.5981 96.0355 89.9442 95.7041 90.8318 95.0414C91.7489 94.3471 92.2075 93.3057 92.2075 91.9172C92.2075 90.5602 91.7489 89.5819 90.8318 88.9822C89.9442 88.3826 88.5981 88.0828 86.7934 88.0828H83.1545V96.0355Z"/>
<path d="M108.701 101.432L117.754 70.568H125.609L134.662 101.432H127.739L123.967 85.8107C123.553 84.2643 123.153 82.6233 122.769 80.8876C122.384 79.1519 121.999 77.4793 121.615 75.8698H121.437C121.112 77.4793 120.742 79.1519 120.328 80.8876C119.943 82.6233 119.559 84.2643 119.174 85.8107L115.358 101.432H108.701ZM114.648 94.0947V88.6509H128.582V94.0947H114.648Z"/>
<path d="M146.707 101.432V70.568H153.408L160.953 85.9053C161.456 86.9467 161.944 88.0513 162.417 89.2189C162.89 90.3866 163.349 91.5542 163.793 92.7219H163.97C163.822 91.0493 163.645 89.2189 163.438 87.2308C163.26 85.211 163.171 83.286 163.171 81.4556V70.568H169.384V101.432H162.683L155.139 86.0947C154.636 85.0533 154.148 83.9487 153.675 82.7811C153.201 81.6134 152.728 80.4615 152.255 79.3254H152.077C152.255 80.998 152.432 82.8284 152.61 84.8166C152.817 86.7732 152.92 88.6667 152.92 90.497V101.432H146.707Z"/>
<path d="M196.864 102C194.261 102 191.968 101.353 189.986 100.059C188.033 98.7653 186.495 96.9191 185.371 94.5207C184.276 92.1223 183.729 89.2347 183.729 85.858C183.729 82.5128 184.276 79.6568 185.371 77.2899C186.495 74.9231 188.033 73.1243 189.986 71.8935C191.968 70.6312 194.261 70 196.864 70C199.468 70 201.746 70.6312 203.698 71.8935C205.681 73.1243 207.219 74.9231 208.314 77.2899C209.438 79.6568 210 82.5128 210 85.858C210 89.2347 209.438 92.1223 208.314 94.5207C207.219 96.9191 205.681 98.7653 203.698 100.059C201.746 101.353 199.468 102 196.864 102ZM196.864 95.9882C198.196 95.9882 199.335 95.5779 200.281 94.7574C201.258 93.9053 201.997 92.7377 202.5 91.2544C203.033 89.7396 203.299 87.9408 203.299 85.858C203.299 83.8067 203.033 82.0552 202.5 80.6036C201.997 79.1203 201.258 77.9842 200.281 77.1953C199.335 76.4063 198.196 76.0118 196.864 76.0118C195.563 76.0118 194.424 76.4063 193.447 77.1953C192.471 77.9842 191.717 79.1203 191.184 80.6036C190.681 82.0552 190.43 83.8067 190.43 85.858C190.43 87.9408 190.681 89.7396 191.184 91.2544C191.717 92.7377 192.471 93.9053 193.447 94.7574C194.424 95.5779 195.563 95.9882 196.864 95.9882Z"/>
</mask>
<path d="M13.5825 102C11.7187 102 10.0619 101.732 8.61223 101.195C7.16257 100.627 5.94959 99.7594 4.97329 98.5917C3.99698 97.3925 3.25736 95.8777 2.75442 94.0473C2.25147 92.217 2 90.0394 2 87.5148V70.568H8.56786V88.2249C8.56786 90.1499 8.76016 91.6805 9.14476 92.8166C9.52937 93.9527 10.0915 94.7732 10.8311 95.2781C11.5707 95.7515 12.4879 95.9882 13.5825 95.9882C14.6771 95.9882 15.5943 95.7515 16.3339 95.2781C17.1031 94.7732 17.68 93.9527 18.0646 92.8166C18.4788 91.6805 18.6859 90.1499 18.6859 88.2249V70.568H24.9875V87.5148C24.9875 90.0394 24.736 92.217 24.2331 94.0473C23.7597 95.8777 23.0497 97.3925 22.103 98.5917C21.1562 99.7594 19.9581 100.627 18.5084 101.195C17.0883 101.732 15.4464 102 13.5825 102Z" fill="#2AB1F0"/>
<path d="M40.531 101.432V70.568H50.9597C53.0011 70.568 54.8649 70.8679 56.5513 71.4675C58.2376 72.0355 59.5837 73.0296 60.5896 74.4497C61.5955 75.8383 62.0984 77.7475 62.0984 80.1775C62.0984 82.5128 61.5955 84.4379 60.5896 85.9527C59.5837 87.4359 58.2376 88.5404 56.5513 89.2663C54.8649 89.9921 53.0011 90.355 50.9597 90.355H47.0545V101.432H40.531ZM47.0545 84.8166H50.4272C52.1431 84.8166 53.4449 84.4221 54.3324 83.6331C55.2495 82.8442 55.7081 81.6923 55.7081 80.1775C55.7081 78.6627 55.2495 77.6055 54.3324 77.0059C53.4449 76.4063 52.1431 76.1065 50.4272 76.1065H47.0545V84.8166ZM56.1962 101.432L49.7615 88.5089L54.288 84.0118L63.5185 101.432H56.1962Z" fill="#2AB1F0"/>
<path d="M76.631 101.432V70.568H86.5272C88.5389 70.568 90.3436 70.8047 91.9412 71.2781C93.5684 71.7199 94.8405 72.4931 95.7577 73.5976C96.7044 74.7022 97.1777 76.2485 97.1777 78.2367C97.1777 79.783 96.8523 81.1716 96.2014 82.4024C95.5506 83.6016 94.6039 84.4379 93.3613 84.9112V85.1006C95.018 85.4793 96.305 86.2367 97.2221 87.3728C98.1688 88.4773 98.6422 90.0237 98.6422 92.0118C98.6422 94.1894 98.1245 95.9724 97.089 97.3609C96.0831 98.7495 94.737 99.7751 93.0506 100.438C91.3643 101.101 89.4561 101.432 87.326 101.432H76.631ZM83.1545 82.9231H86.2165C87.8141 82.9231 88.9679 82.5917 89.678 81.929C90.4176 81.2663 90.7874 80.3826 90.7874 79.2781C90.7874 78.0789 90.4176 77.2268 89.678 76.7219C88.9383 76.217 87.7993 75.9645 86.2609 75.9645H83.1545V82.9231ZM83.1545 96.0355H86.7934C88.5981 96.0355 89.9442 95.7041 90.8318 95.0414C91.7489 94.3471 92.2075 93.3057 92.2075 91.9172C92.2075 90.5602 91.7489 89.5819 90.8318 88.9822C89.9442 88.3826 88.5981 88.0828 86.7934 88.0828H83.1545V96.0355Z" fill="#2AB1F0"/>
<path d="M108.701 101.432L117.754 70.568H125.609L134.662 101.432H127.739L123.967 85.8107C123.553 84.2643 123.153 82.6233 122.769 80.8876C122.384 79.1519 121.999 77.4793 121.615 75.8698H121.437C121.112 77.4793 120.742 79.1519 120.328 80.8876C119.943 82.6233 119.559 84.2643 119.174 85.8107L115.358 101.432H108.701ZM114.648 94.0947V88.6509H128.582V94.0947H114.648Z" fill="#2AB1F0"/>
<path d="M146.707 101.432V70.568H153.408L160.953 85.9053C161.456 86.9467 161.944 88.0513 162.417 89.2189C162.89 90.3866 163.349 91.5542 163.793 92.7219H163.97C163.822 91.0493 163.645 89.2189 163.438 87.2308C163.26 85.211 163.171 83.286 163.171 81.4556V70.568H169.384V101.432H162.683L155.139 86.0947C154.636 85.0533 154.148 83.9487 153.675 82.7811C153.201 81.6134 152.728 80.4615 152.255 79.3254H152.077C152.255 80.998 152.432 82.8284 152.61 84.8166C152.817 86.7732 152.92 88.6667 152.92 90.497V101.432H146.707Z" fill="#2AB1F0"/>
<path d="M196.864 102C194.261 102 191.968 101.353 189.986 100.059C188.033 98.7653 186.495 96.9191 185.371 94.5207C184.276 92.1223 183.729 89.2347 183.729 85.858C183.729 82.5128 184.276 79.6568 185.371 77.2899C186.495 74.9231 188.033 73.1243 189.986 71.8935C191.968 70.6312 194.261 70 196.864 70C199.468 70 201.746 70.6312 203.698 71.8935C205.681 73.1243 207.219 74.9231 208.314 77.2899C209.438 79.6568 210 82.5128 210 85.858C210 89.2347 209.438 92.1223 208.314 94.5207C207.219 96.9191 205.681 98.7653 203.698 100.059C201.746 101.353 199.468 102 196.864 102ZM196.864 95.9882C198.196 95.9882 199.335 95.5779 200.281 94.7574C201.258 93.9053 201.997 92.7377 202.5 91.2544C203.033 89.7396 203.299 87.9408 203.299 85.858C203.299 83.8067 203.033 82.0552 202.5 80.6036C201.997 79.1203 201.258 77.9842 200.281 77.1953C199.335 76.4063 198.196 76.0118 196.864 76.0118C195.563 76.0118 194.424 76.4063 193.447 77.1953C192.471 77.9842 191.717 79.1203 191.184 80.6036C190.681 82.0552 190.43 83.8067 190.43 85.858C190.43 87.9408 190.681 89.7396 191.184 91.2544C191.717 92.7377 192.471 93.9053 193.447 94.7574C194.424 95.5779 195.563 95.9882 196.864 95.9882Z" fill="#2AB1F0"/>
<path d="M13.5825 102C11.7187 102 10.0619 101.732 8.61223 101.195C7.16257 100.627 5.94959 99.7594 4.97329 98.5917C3.99698 97.3925 3.25736 95.8777 2.75442 94.0473C2.25147 92.217 2 90.0394 2 87.5148V70.568H8.56786V88.2249C8.56786 90.1499 8.76016 91.6805 9.14476 92.8166C9.52937 93.9527 10.0915 94.7732 10.8311 95.2781C11.5707 95.7515 12.4879 95.9882 13.5825 95.9882C14.6771 95.9882 15.5943 95.7515 16.3339 95.2781C17.1031 94.7732 17.68 93.9527 18.0646 92.8166C18.4788 91.6805 18.6859 90.1499 18.6859 88.2249V70.568H24.9875V87.5148C24.9875 90.0394 24.736 92.217 24.2331 94.0473C23.7597 95.8777 23.0497 97.3925 22.103 98.5917C21.1562 99.7594 19.9581 100.627 18.5084 101.195C17.0883 101.732 15.4464 102 13.5825 102Z" stroke="#347DB1" stroke-width="4" mask="url(#path-7-outside-1_6415_2496)"/>
<path d="M40.531 101.432V70.568H50.9597C53.0011 70.568 54.8649 70.8679 56.5513 71.4675C58.2376 72.0355 59.5837 73.0296 60.5896 74.4497C61.5955 75.8383 62.0984 77.7475 62.0984 80.1775C62.0984 82.5128 61.5955 84.4379 60.5896 85.9527C59.5837 87.4359 58.2376 88.5404 56.5513 89.2663C54.8649 89.9921 53.0011 90.355 50.9597 90.355H47.0545V101.432H40.531ZM47.0545 84.8166H50.4272C52.1431 84.8166 53.4449 84.4221 54.3324 83.6331C55.2495 82.8442 55.7081 81.6923 55.7081 80.1775C55.7081 78.6627 55.2495 77.6055 54.3324 77.0059C53.4449 76.4063 52.1431 76.1065 50.4272 76.1065H47.0545V84.8166ZM56.1962 101.432L49.7615 88.5089L54.288 84.0118L63.5185 101.432H56.1962Z" stroke="#347DB1" stroke-width="4" mask="url(#path-7-outside-1_6415_2496)"/>
<path d="M76.631 101.432V70.568H86.5272C88.5389 70.568 90.3436 70.8047 91.9412 71.2781C93.5684 71.7199 94.8405 72.4931 95.7577 73.5976C96.7044 74.7022 97.1777 76.2485 97.1777 78.2367C97.1777 79.783 96.8523 81.1716 96.2014 82.4024C95.5506 83.6016 94.6039 84.4379 93.3613 84.9112V85.1006C95.018 85.4793 96.305 86.2367 97.2221 87.3728C98.1688 88.4773 98.6422 90.0237 98.6422 92.0118C98.6422 94.1894 98.1245 95.9724 97.089 97.3609C96.0831 98.7495 94.737 99.7751 93.0506 100.438C91.3643 101.101 89.4561 101.432 87.326 101.432H76.631ZM83.1545 82.9231H86.2165C87.8141 82.9231 88.9679 82.5917 89.678 81.929C90.4176 81.2663 90.7874 80.3826 90.7874 79.2781C90.7874 78.0789 90.4176 77.2268 89.678 76.7219C88.9383 76.217 87.7993 75.9645 86.2609 75.9645H83.1545V82.9231ZM83.1545 96.0355H86.7934C88.5981 96.0355 89.9442 95.7041 90.8318 95.0414C91.7489 94.3471 92.2075 93.3057 92.2075 91.9172C92.2075 90.5602 91.7489 89.5819 90.8318 88.9822C89.9442 88.3826 88.5981 88.0828 86.7934 88.0828H83.1545V96.0355Z" stroke="#347DB1" stroke-width="4" mask="url(#path-7-outside-1_6415_2496)"/>
<path d="M108.701 101.432L117.754 70.568H125.609L134.662 101.432H127.739L123.967 85.8107C123.553 84.2643 123.153 82.6233 122.769 80.8876C122.384 79.1519 121.999 77.4793 121.615 75.8698H121.437C121.112 77.4793 120.742 79.1519 120.328 80.8876C119.943 82.6233 119.559 84.2643 119.174 85.8107L115.358 101.432H108.701ZM114.648 94.0947V88.6509H128.582V94.0947H114.648Z" stroke="#347DB1" stroke-width="4" mask="url(#path-7-outside-1_6415_2496)"/>
<path d="M146.707 101.432V70.568H153.408L160.953 85.9053C161.456 86.9467 161.944 88.0513 162.417 89.2189C162.89 90.3866 163.349 91.5542 163.793 92.7219H163.97C163.822 91.0493 163.645 89.2189 163.438 87.2308C163.26 85.211 163.171 83.286 163.171 81.4556V70.568H169.384V101.432H162.683L155.139 86.0947C154.636 85.0533 154.148 83.9487 153.675 82.7811C153.201 81.6134 152.728 80.4615 152.255 79.3254H152.077C152.255 80.998 152.432 82.8284 152.61 84.8166C152.817 86.7732 152.92 88.6667 152.92 90.497V101.432H146.707Z" stroke="#347DB1" stroke-width="4" mask="url(#path-7-outside-1_6415_2496)"/>
<path d="M196.864 102C194.261 102 191.968 101.353 189.986 100.059C188.033 98.7653 186.495 96.9191 185.371 94.5207C184.276 92.1223 183.729 89.2347 183.729 85.858C183.729 82.5128 184.276 79.6568 185.371 77.2899C186.495 74.9231 188.033 73.1243 189.986 71.8935C191.968 70.6312 194.261 70 196.864 70C199.468 70 201.746 70.6312 203.698 71.8935C205.681 73.1243 207.219 74.9231 208.314 77.2899C209.438 79.6568 210 82.5128 210 85.858C210 89.2347 209.438 92.1223 208.314 94.5207C207.219 96.9191 205.681 98.7653 203.698 100.059C201.746 101.353 199.468 102 196.864 102ZM196.864 95.9882C198.196 95.9882 199.335 95.5779 200.281 94.7574C201.258 93.9053 201.997 92.7377 202.5 91.2544C203.033 89.7396 203.299 87.9408 203.299 85.858C203.299 83.8067 203.033 82.0552 202.5 80.6036C201.997 79.1203 201.258 77.9842 200.281 77.1953C199.335 76.4063 198.196 76.0118 196.864 76.0118C195.563 76.0118 194.424 76.4063 193.447 77.1953C192.471 77.9842 191.717 79.1203 191.184 80.6036C190.681 82.0552 190.43 83.8067 190.43 85.858C190.43 87.9408 190.681 89.7396 191.184 91.2544C191.717 92.7377 192.471 93.9053 193.447 94.7574C194.424 95.5779 195.563 95.9882 196.864 95.9882Z" stroke="#347DB1" stroke-width="4" mask="url(#path-7-outside-1_6415_2496)"/>
<g filter="url(#filter0_i_6415_2496)">
<path fill-rule="evenodd" clip-rule="evenodd" d="M85.3149 59.7422H2.00023V59.0185H2.95992V55.8421H6.96804V57.2494H7.41965V57.6916H8.5487V52.5452H9.56485V45.6698L14.702 48.243V49.6503H15.0972V56.9277H15.6617V54.7565H16.7343V50.0121H18.202V42.413L21.6456 44.544V46.3533H23.2827V48.6049H25.8796V30.4314L36.6055 24.9633H37.5087V51.4596H39.0894V32.1603H42.7023V35.5377H43.0975V36.9047H45.1862V44.544H49.8153V54.7565H50.8879V28.6221H53.4283V13.7456L60.9929 19.5354V29.3056H64.4929V34.7737H68.0494V45.6296H69.6865C69.6113 34.5459 69.5059 11.494 69.6865 7.95578L82.5577 1H83.8561V55.8019H85.3149V59.7422Z" fill="#2AB1F0"/>
</g>
<path d="M2.00023 59.7422V60.7422H1.00023V59.7422H2.00023ZM85.3149 59.7422H86.3149V60.7422H85.3149V59.7422ZM2.00023 59.0185H1.00023V58.0185H2.00023V59.0185ZM2.95992 59.0185H3.95992V60.0185H2.95992V59.0185ZM2.95992 55.8421H1.95992V54.8421H2.95992V55.8421ZM6.96804 55.8421V54.8421H7.96804V55.8421H6.96804ZM6.96804 57.2494V58.2494H5.96804V57.2494H6.96804ZM7.41965 57.2494V56.2494H8.41965V57.2494H7.41965ZM7.41965 57.6916V58.6916H6.41965V57.6916H7.41965ZM8.5487 57.6916H9.5487V58.6916H8.5487V57.6916ZM8.5487 52.5452H7.5487V51.5452H8.5487V52.5452ZM9.56485 52.5452H10.5648V53.5452H9.56485V52.5452ZM9.56485 45.6698H8.56485V44.0504L10.0127 44.7757L9.56485 45.6698ZM14.702 48.243L15.1499 47.3489L15.702 47.6255V48.243H14.702ZM14.702 49.6503V50.6503H13.702V49.6503H14.702ZM15.0972 49.6503V48.6503H16.0972V49.6503H15.0972ZM15.0972 56.9277V57.9277H14.0972V56.9277H15.0972ZM15.6617 56.9277H16.6617V57.9277H15.6617V56.9277ZM15.6617 54.7565H14.6617V53.7565H15.6617V54.7565ZM16.7343 54.7565H17.7343V55.7565H16.7343V54.7565ZM16.7343 50.0121H15.7343V49.0121H16.7343V50.0121ZM18.202 50.0121H19.202V51.0121H18.202V50.0121ZM18.202 42.413H17.202V40.6182L18.7283 41.5627L18.202 42.413ZM21.6456 44.544L22.1718 43.6937L22.6456 43.9868V44.544H21.6456ZM21.6456 46.3533V47.3533H20.6456V46.3533H21.6456ZM23.2827 46.3533V45.3533H24.2827V46.3533H23.2827ZM23.2827 48.6049V49.6049H22.2827V48.6049H23.2827ZM25.8796 48.6049H26.8796V49.6049H25.8796V48.6049ZM25.8796 30.4314H24.8796V29.8188L25.4254 29.5405L25.8796 30.4314ZM36.6055 24.9633L36.1513 24.0724L36.3653 23.9633H36.6055V24.9633ZM37.5087 24.9633V23.9633H38.5087V24.9633H37.5087ZM37.5087 51.4596V52.4596H36.5087V51.4596H37.5087ZM39.0894 51.4596H40.0894V52.4596H39.0894V51.4596ZM39.0894 32.1603H38.0894V31.1603H39.0894V32.1603ZM42.7023 32.1603V31.1603H43.7023V32.1603H42.7023ZM42.7023 35.5377V36.5377H41.7023V35.5377H42.7023ZM43.0975 35.5377V34.5377H44.0975V35.5377H43.0975ZM43.0975 36.9047V37.9047H42.0975V36.9047H43.0975ZM45.1862 36.9047V35.9047H46.1862V36.9047H45.1862ZM45.1862 44.544V45.544H44.1862V44.544H45.1862ZM49.8153 44.544V43.544H50.8153V44.544H49.8153ZM49.8153 54.7565V55.7565H48.8153V54.7565H49.8153ZM50.8879 54.7565H51.8879V55.7565H50.8879V54.7565ZM50.8879 28.6221H49.8879V27.6221H50.8879V28.6221ZM53.4283 28.6221H54.4283V29.6221H53.4283V28.6221ZM53.4283 13.7456H52.4283V11.7209L54.0361 12.9515L53.4283 13.7456ZM60.9929 19.5354L61.6007 18.7413L61.9929 19.0414V19.5354H60.9929ZM60.9929 29.3056V30.3056H59.9929V29.3056H60.9929ZM64.4929 29.3056V28.3056H65.4929V29.3056H64.4929ZM64.4929 34.7737V35.7737H63.4929V34.7737H64.4929ZM68.0494 34.7737V33.7737H69.0494V34.7737H68.0494ZM68.0494 45.6296V46.6296H67.0494V45.6296H68.0494ZM69.6865 45.6296L70.6865 45.6228L70.6933 46.6296H69.6865V45.6296ZM69.6865 7.95578L68.6878 7.90479L68.7165 7.34332L69.2111 7.07603L69.6865 7.95578ZM82.5577 1L82.0822 0.120248L82.3047 0H82.5577V1ZM83.8561 1V0H84.8561V1H83.8561ZM83.8561 55.8019V56.8019H82.8561V55.8019H83.8561ZM85.3149 55.8019V54.8019H86.3149V55.8019H85.3149ZM2.00023 58.7422H85.3149V60.7422H2.00023V58.7422ZM3.00023 59.0185V59.7422H1.00023V59.0185H3.00023ZM2.95992 60.0185H2.00023V58.0185H2.95992V60.0185ZM3.95992 55.8421V59.0185H1.95992V55.8421H3.95992ZM6.96804 56.8421H2.95992V54.8421H6.96804V56.8421ZM5.96804 57.2494V55.8421H7.96804V57.2494H5.96804ZM7.41965 58.2494H6.96804V56.2494H7.41965V58.2494ZM6.41965 57.6916V57.2494H8.41965V57.6916H6.41965ZM8.5487 58.6916H7.41965V56.6916H8.5487V58.6916ZM9.5487 52.5452V57.6916H7.5487V52.5452H9.5487ZM9.56485 53.5452H8.5487V51.5452H9.56485V53.5452ZM10.5648 45.6698V52.5452H8.56485V45.6698H10.5648ZM14.2541 49.1371L9.11699 46.5639L10.0127 44.7757L15.1499 47.3489L14.2541 49.1371ZM13.702 49.6503V48.243H15.702V49.6503H13.702ZM15.0972 50.6503H14.702V48.6503H15.0972V50.6503ZM14.0972 56.9277V49.6503H16.0972V56.9277H14.0972ZM15.6617 57.9277H15.0972V55.9277H15.6617V57.9277ZM16.6617 54.7565V56.9277H14.6617V54.7565H16.6617ZM16.7343 55.7565H15.6617V53.7565H16.7343V55.7565ZM17.7343 50.0121V54.7565H15.7343V50.0121H17.7343ZM18.202 51.0121H16.7343V49.0121H18.202V51.0121ZM19.202 42.413V50.0121H17.202V42.413H19.202ZM21.1194 45.3944L17.6758 43.2634L18.7283 41.5627L22.1718 43.6937L21.1194 45.3944ZM20.6456 46.3533V44.544H22.6456V46.3533H20.6456ZM23.2827 47.3533H21.6456V45.3533H23.2827V47.3533ZM22.2827 48.6049V46.3533H24.2827V48.6049H22.2827ZM25.8796 49.6049H23.2827V47.6049H25.8796V49.6049ZM26.8796 30.4314V48.6049H24.8796V30.4314H26.8796ZM37.0597 25.8542L26.3337 31.3223L25.4254 29.5405L36.1513 24.0724L37.0597 25.8542ZM37.5087 25.9633H36.6055V23.9633H37.5087V25.9633ZM36.5087 51.4596V24.9633H38.5087V51.4596H36.5087ZM39.0894 52.4596H37.5087V50.4596H39.0894V52.4596ZM40.0894 32.1603V51.4596H38.0894V32.1603H40.0894ZM42.7023 33.1603H39.0894V31.1603H42.7023V33.1603ZM41.7023 35.5377V32.1603H43.7023V35.5377H41.7023ZM43.0975 36.5377H42.7023V34.5377H43.0975V36.5377ZM42.0975 36.9047V35.5377H44.0975V36.9047H42.0975ZM45.1862 37.9047H43.0975V35.9047H45.1862V37.9047ZM44.1862 44.544V36.9047H46.1862V44.544H44.1862ZM49.8153 45.544H45.1862V43.544H49.8153V45.544ZM48.8153 54.7565V44.544H50.8153V54.7565H48.8153ZM50.8879 55.7565H49.8153V53.7565H50.8879V55.7565ZM51.8879 28.6221V54.7565H49.8879V28.6221H51.8879ZM53.4283 29.6221H50.8879V27.6221H53.4283V29.6221ZM54.4283 13.7456V28.6221H52.4283V13.7456H54.4283ZM60.3851 20.3295L52.8205 14.5397L54.0361 12.9515L61.6007 18.7413L60.3851 20.3295ZM59.9929 29.3056V19.5354H61.9929V29.3056H59.9929ZM64.4929 30.3056H60.9929V28.3056H64.4929V30.3056ZM63.4929 34.7737V29.3056H65.4929V34.7737H63.4929ZM68.0494 35.7737H64.4929V33.7737H68.0494V35.7737ZM67.0494 45.6296V34.7737H69.0494V45.6296H67.0494ZM69.6865 46.6296H68.0494V44.6296H69.6865V46.6296ZM70.6852 8.00677C70.5065 11.5071 70.6111 34.5135 70.6865 45.6228L68.6866 45.6364C68.6115 34.5783 68.5053 11.4809 68.6878 7.90479L70.6852 8.00677ZM83.0331 1.87975L70.162 8.83553L69.2111 7.07603L82.0822 0.120248L83.0331 1.87975ZM83.8561 2H82.5577V0H83.8561V2ZM82.8561 55.8019V1H84.8561V55.8019H82.8561ZM85.3149 56.8019H83.8561V54.8019H85.3149V56.8019ZM86.3149 55.8019V59.7422H84.3149V55.8019H86.3149Z" fill="#347DB1"/>
<defs>
<filter id="filter0_i_6415_2496" x="1" y="0" width="85.3149" height="64.7422" filterUnits="userSpaceOnUse" color-interpolation-filters="sRGB">
<feFlood flood-opacity="0" result="BackgroundImageFix"/>
<feBlend mode="normal" in="SourceGraphic" in2="BackgroundImageFix" result="shape"/>
<feColorMatrix in="SourceAlpha" type="matrix" values="0 0 0 0 0 0 0 0 0 0 0 0 0 0 0 0 0 0 127 0" result="hardAlpha"/>
<feOffset dy="4"/>
<feGaussianBlur stdDeviation="2"/>
<feComposite in2="hardAlpha" operator="arithmetic" k2="-1" k3="1"/>
<feColorMatrix type="matrix" values="0 0 0 0 0 0 0 0 0 0 0 0 0 0 0 0 0 0 0.25 0"/>
<feBlend mode="normal" in2="shape" result="effect1_innerShadow_6415_2496"/>
</filter>
</defs>
</svg>
