<svg width="173" height="85" viewBox="0 0 173 85" fill="none" xmlns="http://www.w3.org/2000/svg">
<path d="M84.7402 6.49512C86.7362 6.49517 88.6614 6.95314 90.5059 7.8584L90.8496 8.0332C92.5547 8.92928 94.0469 10.1647 95.3242 11.7266L95.7803 12.2842L95.3955 12.8936L91.752 18.6582L91.0957 19.6963L90.2119 18.8438C89.2774 17.9428 88.3331 17.2674 87.3818 16.7998L87.3711 16.7939C86.4665 16.3359 85.5927 16.1212 84.7402 16.1211C83.7433 16.1211 83.0497 16.3873 82.5566 16.8281L82.5498 16.834C82.1302 17.2018 81.8624 17.7595 81.8623 18.6641C81.8623 19.2301 82.0078 19.6774 82.2715 20.0479C82.579 20.4385 83.0087 20.8089 83.5859 21.1494C83.9391 21.3272 84.3135 21.5198 84.71 21.7256L86.0039 22.4053V22.4062L89.835 24.4473H89.834C91.1951 25.133 92.3607 25.9974 93.3164 27.0469L93.6826 27.458C94.5078 28.4366 95.1528 29.5754 95.625 30.8623H95.626C96.1775 32.3247 96.4375 34.0318 96.4375 35.959C96.4375 38.121 96.0129 40.1488 95.1572 42.0303L94.9805 42.4043C93.9984 44.4067 92.5695 46.0247 90.7061 47.2441C88.8021 48.4901 86.5321 49.0889 83.9453 49.0889C81.7641 49.0888 79.6263 48.5919 77.541 47.6133L77.5342 47.6094L77.5264 47.6064C75.4175 46.5737 73.5467 45.0333 71.9102 43.0137L71.459 42.457L71.8418 41.8506L75.4863 36.085L76.2002 34.9551L77.083 35.96L77.4668 36.3789C78.3739 37.3231 79.3704 38.0602 80.4551 38.6006C81.7424 39.1865 82.9499 39.4629 84.0859 39.4629C85.4194 39.4629 86.184 39.1501 86.6045 38.7324L86.6201 38.7168C87.1028 38.2581 87.3838 37.6186 87.3838 36.6797C87.3838 35.9779 87.2276 35.5602 87.0342 35.3115L87.0098 35.2812L86.9873 35.248C86.7727 34.922 86.4558 34.602 86.0068 34.2988L85.8057 34.1699C85.1735 33.7829 84.4132 33.3527 83.5225 32.8789L83.5205 32.877L79.5967 30.7754L79.5752 30.7637C78.4386 30.1191 77.3609 29.3079 76.3418 28.3359L76.3154 28.3096C75.2884 27.2534 74.4609 25.9874 73.8262 24.5273L73.8203 24.5146L73.8145 24.501C73.1965 22.9565 72.9024 21.1835 72.9023 19.2051C72.9023 16.8576 73.4016 14.7281 74.4248 12.8428C75.3729 11.0585 76.6548 9.60353 78.2666 8.49316L78.5938 8.27539C80.3886 7.08166 82.4492 6.49512 84.7402 6.49512Z" stroke="#DAEDFF" stroke-width="2"/>
<rect x="98.0625" y="41.7822" width="4.5" height="4.49505" rx="1" stroke="#DAEDFF" stroke-width="2"/>
<rect x="140.312" y="40.9702" width="2.875" height="4.49505" rx="1" stroke="#DAEDFF" stroke-width="2"/>
<path d="M158.678 6.49512C160.674 6.49517 162.599 6.95314 164.443 7.8584L164.787 8.0332C166.492 8.92928 167.984 10.1647 169.262 11.7266L169.718 12.2842L169.333 12.8936L165.689 18.6582L165.033 19.6963L164.149 18.8438C163.215 17.9428 162.271 17.2674 161.319 16.7998L161.309 16.7939C160.404 16.3359 159.53 16.1212 158.678 16.1211C157.681 16.1211 156.987 16.3873 156.494 16.8281L156.487 16.834C156.068 17.2018 155.8 17.7595 155.8 18.6641C155.8 19.2301 155.945 19.6774 156.209 20.0479C156.517 20.4385 156.946 20.8089 157.523 21.1494C157.877 21.3272 158.251 21.5198 158.647 21.7256L159.941 22.4053V22.4062L163.772 24.4473H163.771C165.133 25.133 166.298 25.9974 167.254 27.0469L167.62 27.458C168.445 28.4366 169.09 29.5754 169.562 30.8623H169.563C170.115 32.3247 170.375 34.0318 170.375 35.959C170.375 38.265 169.892 40.4183 168.918 42.4043C167.997 44.2814 166.684 45.8209 164.988 47.0107L164.644 47.2441C162.74 48.4901 160.47 49.0889 157.883 49.0889C155.702 49.0888 153.564 48.5919 151.479 47.6133L151.472 47.6094L151.464 47.6064C149.355 46.5737 147.484 45.0333 145.848 43.0137L145.396 42.457L145.779 41.8506L149.424 36.085L150.138 34.9551L151.021 35.96C152.028 37.1074 153.152 37.9827 154.393 38.6006C155.68 39.1865 156.887 39.4629 158.023 39.4629C159.357 39.4629 160.122 39.1501 160.542 38.7324L160.558 38.7168C161.04 38.2581 161.321 37.6186 161.321 36.6797C161.321 35.9779 161.165 35.5602 160.972 35.3115L160.947 35.2812L160.925 35.248C160.71 34.922 160.393 34.602 159.944 34.2988L159.743 34.1699C159.111 33.7829 158.351 33.3527 157.46 32.8789L157.458 32.877L153.534 30.7754L153.513 30.7637C152.376 30.1191 151.298 29.3079 150.279 28.3359L150.253 28.3096C149.354 27.3855 148.608 26.301 148.011 25.0664L147.764 24.5273L147.758 24.5146L147.752 24.501C147.134 22.9565 146.84 21.1835 146.84 19.2051C146.84 16.8576 147.339 14.7281 148.362 12.8428C149.31 11.0585 150.592 9.60353 152.204 8.49316L152.531 8.27539C154.326 7.08167 156.387 6.49512 158.678 6.49512Z" stroke="#DAEDFF" stroke-width="2"/>
<path d="M119.727 35.4679L124.54 44.1232L125.046 46.1388C124.374 47.5447 122.071 49.5352 120.142 48.7052C120.142 48.7052 117.008 43.1309 114.753 39.4562M119.727 35.4679C128.025 33.7663 132.479 41.945 135.245 40.0502C142.937 34.7809 130.515 -0.380781 124.789 1.042C124.789 1.042 123.467 1.15358 122.88 1.79546C122.433 2.28443 122.106 2.85566 121.802 3.53187C121.309 4.62365 121.25 5.31035 120.972 6.61456C120.391 9.34156 119.858 11.2117 119.146 13.1356C118.434 15.0596 116.574 17.9968 116.574 17.9968L114.753 20.1668L112.075 22.2839M119.727 35.4679C117.686 35.7764 116.377 36.9763 115.593 38.0343M114.753 39.4562C113.315 40.1912 111.071 41.3381 111.071 41.3381M114.753 39.4562C114.902 39.1298 115.172 38.6025 115.593 38.0343M114.753 39.4562C114.163 38.9006 113.645 38.3047 113.191 37.6786M114.753 39.4562L111.071 41.3381M111.071 41.3381C108.249 40.7274 107.159 38.8401 107.159 38.8401M107.159 38.8401C106.612 38.9017 105.367 38.3134 104.77 35.4679C104.023 31.9109 104.442 31.095 105.145 30.0139M107.159 38.8401C107.159 38.8401 105.395 34.3012 105.145 30.0139M111.071 21.5782L112.075 22.2839M111.071 21.5782L107.159 23.9791L105.986 25.2765C105.456 26.0794 105.126 27.6708 105.117 28.9327C105.114 29.2893 105.124 29.6507 105.145 30.0139M111.071 21.5782C110.879 22.2383 110.697 23.0541 110.556 23.9791M112.075 22.2839C111.943 22.8836 111.845 23.5687 111.761 24.3993M125.038 4.48039C124.849 5.02709 124.7 5.62246 124.588 6.25887C123.052 14.9695 128.418 31.3663 133.751 35.8216C134.028 36.0531 134.305 36.2523 134.581 36.4165M125.038 4.48039C124.753 4.78957 125.069 4.53202 125.166 4.40826M125.038 4.48039C125.079 4.45153 125.122 4.42752 125.166 4.40826M134.581 36.4165C134.116 36.7011 132.525 37.5567 132.11 37.3196C123.48 30.2057 117.459 33.9916 114.416 36.4165C111.655 33.5548 111.387 28.0683 111.761 24.3993M134.581 36.4165C139.499 32.5515 128.709 2.84509 125.166 4.40826M126.969 19.1825C126.849 18.5053 126.759 17.8953 126.698 17.404C133.917 14.0842 133.253 26.5335 129.768 27.2449C129.425 26.849 129.109 26.3186 128.821 25.7036M126.969 19.1825L128.357 18.3525C128.302 19.8543 128.59 23.2374 130.183 24.755L128.821 25.7036M126.969 19.1825C127.328 21.2113 127.949 23.8443 128.821 25.7036M111.761 24.3993C113.939 23.04 118.482 22.2839 122.465 6.25887C125.034 4.31536 125.293 4.24403 125.166 4.40826M115.593 38.0343L118.648 36.4165V37.6786L121.553 43.6069C121.829 43.765 122.465 43.9863 122.797 43.6069C123.212 43.1326 124.125 45.9782 123.793 45.6225C123.682 46.4525 123.445 47.9938 123.378 47.5195C123.312 47.0453 122.133 47.6381 121.553 47.9938L115.593 38.0343ZM120.806 40.9985L121.802 42.7769H122.05V42.4212L121.138 40.6428L120.806 40.5242L120.776 40.9985M110.556 23.9791C109.298 24.712 106.865 26.2964 106.782 26.4149C106.699 26.5325 104.25 35.161 110.118 39.3523M110.556 23.9791C109.978 27.7798 110.104 33.4236 113.191 37.6786M110.267 39.4562C110.217 39.4219 110.167 39.3872 110.118 39.3523M110.118 39.3523L113.191 37.6786M130.93 22.6209C130.432 22.858 129.021 20.131 130.017 19.1825C130.681 18.5501 131.76 21.6723 130.93 22.6209Z" stroke="#DAEDFF"/>
<mask id="path-6-outside-1_6975_2941" maskUnits="userSpaceOnUse" x="0" y="55.02" width="173" height="30" fill="black">
<rect fill="white" y="55.02" width="173" height="30"/>
<path d="M11.4108 83.0002C9.8964 83.0002 8.55029 82.7824 7.37244 82.3469C6.19459 81.8857 5.20904 81.1811 4.41579 80.2331C3.62255 79.2595 3.0216 78.0296 2.61296 76.5436C2.20432 75.0576 2 73.2897 2 71.24V57.4812H7.33638V71.8164C7.33638 73.3793 7.49263 74.622 7.80512 75.5444C8.11761 76.4667 8.57433 77.1329 9.17527 77.5428C9.77622 77.9272 10.5214 78.1193 11.4108 78.1193C12.3002 78.1193 13.0454 77.9272 13.6463 77.5428C14.2713 77.1329 14.74 76.4667 15.0525 75.5444C15.389 74.622 15.5573 73.3793 15.5573 71.8164V57.4812H20.6773V71.24C20.6773 73.2897 20.473 75.0576 20.0644 76.5436C19.6798 78.0296 19.1029 79.2595 18.3337 80.2331C17.5644 81.1811 16.5909 81.8857 15.4131 82.3469C14.2593 82.7824 12.9252 83.0002 11.4108 83.0002Z"/>
<path d="M33.3065 82.539V57.4812H41.7798C43.4384 57.4812 44.9528 57.7246 46.3229 58.2114C47.6931 58.6726 48.7868 59.4797 49.6041 60.6326C50.4213 61.76 50.83 63.3101 50.83 65.283C50.83 67.1789 50.4213 68.7419 49.6041 69.9717C48.7868 71.1759 47.6931 72.0726 46.3229 72.6619C44.9528 73.2512 43.4384 73.5459 41.7798 73.5459H38.6068V82.539H33.3065ZM38.6068 69.0493H41.3471C42.7413 69.0493 43.7989 68.729 44.5201 68.0885C45.2652 67.448 45.6378 66.5128 45.6378 65.283C45.6378 64.0531 45.2652 63.1948 44.5201 62.708C43.7989 62.2212 42.7413 61.9778 41.3471 61.9778H38.6068V69.0493ZM46.0345 82.539L40.8062 72.047L44.484 68.396L51.9838 82.539H46.0345Z"/>
<path d="M62.6377 82.539V57.4812H70.6783C72.3129 57.4812 73.7792 57.6734 75.0772 58.0577C76.3993 58.4164 77.4329 59.0441 78.1781 59.9409C78.9473 60.8376 79.3319 62.0931 79.3319 63.7072C79.3319 64.9627 79.0675 66.09 78.5387 67.0893C78.0098 68.0629 77.2406 68.7419 76.231 69.1262V69.2799C77.5772 69.5874 78.6228 70.2023 79.368 71.1247C80.1372 72.0214 80.5218 73.2769 80.5218 74.891C80.5218 76.6589 80.1011 78.1065 79.2598 79.2339C78.4425 80.3612 77.3488 81.1939 75.9786 81.732C74.6085 82.27 73.0581 82.539 71.3273 82.539H62.6377ZM67.938 67.512H70.4259C71.724 67.512 72.6614 67.243 73.2383 66.7049C73.8393 66.1669 74.1398 65.4495 74.1398 64.5527C74.1398 63.5791 73.8393 62.8873 73.2383 62.4774C72.6374 62.0675 71.7119 61.8625 70.462 61.8625H67.938V67.512ZM67.938 78.1578H70.8947C72.361 78.1578 73.4547 77.8887 74.1758 77.3507C74.921 76.787 75.2936 75.9415 75.2936 74.8141C75.2936 73.7124 74.921 72.9182 74.1758 72.4313C73.4547 71.9445 72.361 71.7011 70.8947 71.7011H67.938V78.1578Z"/>
<path d="M88.6945 82.539L96.0501 57.4812H102.432L109.788 82.539H104.163L101.098 69.8564C100.761 68.6009 100.437 67.2686 100.124 65.8594C99.812 64.4503 99.4995 63.0923 99.187 61.7856H99.0428C98.7784 63.0923 98.4779 64.4503 98.1414 65.8594C97.8289 67.2686 97.5164 68.6009 97.2039 69.8564L94.103 82.539H88.6945ZM93.5261 76.582V72.1623H104.848V76.582H93.5261Z"/>
<path d="M119.575 82.539V57.4812H125.019L131.149 69.9333C131.558 70.7788 131.954 71.6755 132.339 72.6235C132.723 73.5715 133.096 74.5195 133.457 75.4675H133.601C133.481 74.1096 133.336 72.6235 133.168 71.0094C133.024 69.3696 132.952 67.8067 132.952 66.3206V57.4812H138V82.539H132.555L126.426 70.087C126.017 69.2415 125.62 68.3447 125.236 67.3967C124.851 66.4487 124.466 65.5135 124.082 64.5912H123.938C124.082 65.9491 124.226 67.4352 124.37 69.0493C124.539 70.6378 124.623 72.1751 124.623 73.6612V82.539H119.575Z"/>
<path d="M160.327 83.0002C158.212 83.0002 156.349 82.475 154.738 81.4245C153.152 80.374 151.902 78.8752 150.989 76.9279C150.099 74.9807 149.654 72.6363 149.654 69.8948C149.654 67.1789 150.099 64.8602 150.989 62.9386C151.902 61.017 153.152 59.5565 154.738 58.5573C156.349 57.5324 158.212 57.02 160.327 57.02C162.443 57.02 164.293 57.5324 165.88 58.5573C167.49 59.5565 168.74 61.017 169.63 62.9386C170.543 64.8602 171 67.1789 171 69.8948C171 72.6363 170.543 74.9807 169.63 76.9279C168.74 78.8752 167.49 80.374 165.88 81.4245C164.293 82.475 162.443 83.0002 160.327 83.0002ZM160.327 78.1193C161.409 78.1193 162.334 77.7862 163.104 77.1201C163.897 76.4283 164.498 75.4803 164.906 74.2761C165.339 73.0463 165.555 71.5858 165.555 69.8948C165.555 68.2294 165.339 66.8074 164.906 65.6288C164.498 64.4246 163.897 63.5023 163.104 62.8617C162.334 62.2212 161.409 61.9009 160.327 61.9009C159.27 61.9009 158.344 62.2212 157.551 62.8617C156.758 63.5023 156.145 64.4246 155.712 65.6288C155.303 66.8074 155.099 68.2294 155.099 69.8948C155.099 71.5858 155.303 73.0463 155.712 74.2761C156.145 75.4803 156.758 76.4283 157.551 77.1201C158.344 77.7862 159.27 78.1193 160.327 78.1193Z"/>
</mask>
<path d="M11.4108 83.0002C9.8964 83.0002 8.55029 82.7824 7.37244 82.3469C6.19459 81.8857 5.20904 81.1811 4.41579 80.2331C3.62255 79.2595 3.0216 78.0296 2.61296 76.5436C2.20432 75.0576 2 73.2897 2 71.24V57.4812H7.33638V71.8164C7.33638 73.3793 7.49263 74.622 7.80512 75.5444C8.11761 76.4667 8.57433 77.1329 9.17527 77.5428C9.77622 77.9272 10.5214 78.1193 11.4108 78.1193C12.3002 78.1193 13.0454 77.9272 13.6463 77.5428C14.2713 77.1329 14.74 76.4667 15.0525 75.5444C15.389 74.622 15.5573 73.3793 15.5573 71.8164V57.4812H20.6773V71.24C20.6773 73.2897 20.473 75.0576 20.0644 76.5436C19.6798 78.0296 19.1029 79.2595 18.3337 80.2331C17.5644 81.1811 16.5909 81.8857 15.4131 82.3469C14.2593 82.7824 12.9252 83.0002 11.4108 83.0002Z" stroke="#DAEDFF" stroke-width="4" mask="url(#path-6-outside-1_6975_2941)"/>
<path d="M33.3065 82.539V57.4812H41.7798C43.4384 57.4812 44.9528 57.7246 46.3229 58.2114C47.6931 58.6726 48.7868 59.4797 49.6041 60.6326C50.4213 61.76 50.83 63.3101 50.83 65.283C50.83 67.1789 50.4213 68.7419 49.6041 69.9717C48.7868 71.1759 47.6931 72.0726 46.3229 72.6619C44.9528 73.2512 43.4384 73.5459 41.7798 73.5459H38.6068V82.539H33.3065ZM38.6068 69.0493H41.3471C42.7413 69.0493 43.7989 68.729 44.5201 68.0885C45.2652 67.448 45.6378 66.5128 45.6378 65.283C45.6378 64.0531 45.2652 63.1948 44.5201 62.708C43.7989 62.2212 42.7413 61.9778 41.3471 61.9778H38.6068V69.0493ZM46.0345 82.539L40.8062 72.047L44.484 68.396L51.9838 82.539H46.0345Z" stroke="#DAEDFF" stroke-width="4" mask="url(#path-6-outside-1_6975_2941)"/>
<path d="M62.6377 82.539V57.4812H70.6783C72.3129 57.4812 73.7792 57.6734 75.0772 58.0577C76.3993 58.4164 77.4329 59.0441 78.1781 59.9409C78.9473 60.8376 79.3319 62.0931 79.3319 63.7072C79.3319 64.9627 79.0675 66.09 78.5387 67.0893C78.0098 68.0629 77.2406 68.7419 76.231 69.1262V69.2799C77.5772 69.5874 78.6228 70.2023 79.368 71.1247C80.1372 72.0214 80.5218 73.2769 80.5218 74.891C80.5218 76.6589 80.1011 78.1065 79.2598 79.2339C78.4425 80.3612 77.3488 81.1939 75.9786 81.732C74.6085 82.27 73.0581 82.539 71.3273 82.539H62.6377ZM67.938 67.512H70.4259C71.724 67.512 72.6614 67.243 73.2383 66.7049C73.8393 66.1669 74.1398 65.4495 74.1398 64.5527C74.1398 63.5791 73.8393 62.8873 73.2383 62.4774C72.6374 62.0675 71.7119 61.8625 70.462 61.8625H67.938V67.512ZM67.938 78.1578H70.8947C72.361 78.1578 73.4547 77.8887 74.1758 77.3507C74.921 76.787 75.2936 75.9415 75.2936 74.8141C75.2936 73.7124 74.921 72.9182 74.1758 72.4313C73.4547 71.9445 72.361 71.7011 70.8947 71.7011H67.938V78.1578Z" stroke="#DAEDFF" stroke-width="4" mask="url(#path-6-outside-1_6975_2941)"/>
<path d="M88.6945 82.539L96.0501 57.4812H102.432L109.788 82.539H104.163L101.098 69.8564C100.761 68.6009 100.437 67.2686 100.124 65.8594C99.812 64.4503 99.4995 63.0923 99.187 61.7856H99.0428C98.7784 63.0923 98.4779 64.4503 98.1414 65.8594C97.8289 67.2686 97.5164 68.6009 97.2039 69.8564L94.103 82.539H88.6945ZM93.5261 76.582V72.1623H104.848V76.582H93.5261Z" stroke="#DAEDFF" stroke-width="4" mask="url(#path-6-outside-1_6975_2941)"/>
<path d="M119.575 82.539V57.4812H125.019L131.149 69.9333C131.558 70.7788 131.954 71.6755 132.339 72.6235C132.723 73.5715 133.096 74.5195 133.457 75.4675H133.601C133.481 74.1096 133.336 72.6235 133.168 71.0094C133.024 69.3696 132.952 67.8067 132.952 66.3206V57.4812H138V82.539H132.555L126.426 70.087C126.017 69.2415 125.62 68.3447 125.236 67.3967C124.851 66.4487 124.466 65.5135 124.082 64.5912H123.938C124.082 65.9491 124.226 67.4352 124.37 69.0493C124.539 70.6378 124.623 72.1751 124.623 73.6612V82.539H119.575Z" stroke="#DAEDFF" stroke-width="4" mask="url(#path-6-outside-1_6975_2941)"/>
<path d="M160.327 83.0002C158.212 83.0002 156.349 82.475 154.738 81.4245C153.152 80.374 151.902 78.8752 150.989 76.9279C150.099 74.9807 149.654 72.6363 149.654 69.8948C149.654 67.1789 150.099 64.8602 150.989 62.9386C151.902 61.017 153.152 59.5565 154.738 58.5573C156.349 57.5324 158.212 57.02 160.327 57.02C162.443 57.02 164.293 57.5324 165.88 58.5573C167.49 59.5565 168.74 61.017 169.63 62.9386C170.543 64.8602 171 67.1789 171 69.8948C171 72.6363 170.543 74.9807 169.63 76.9279C168.74 78.8752 167.49 80.374 165.88 81.4245C164.293 82.475 162.443 83.0002 160.327 83.0002ZM160.327 78.1193C161.409 78.1193 162.334 77.7862 163.104 77.1201C163.897 76.4283 164.498 75.4803 164.906 74.2761C165.339 73.0463 165.555 71.5858 165.555 69.8948C165.555 68.2294 165.339 66.8074 164.906 65.6288C164.498 64.4246 163.897 63.5023 163.104 62.8617C162.334 62.2212 161.409 61.9009 160.327 61.9009C159.27 61.9009 158.344 62.2212 157.551 62.8617C156.758 63.5023 156.145 64.4246 155.712 65.6288C155.303 66.8074 155.099 68.2294 155.099 69.8948C155.099 71.5858 155.303 73.0463 155.712 74.2761C156.145 75.4803 156.758 76.4283 157.551 77.1201C158.344 77.7862 159.27 78.1193 160.327 78.1193Z" stroke="#DAEDFF" stroke-width="4" mask="url(#path-6-outside-1_6975_2941)"/>
<g filter="url(#filter0_i_6975_2941)">
<path d="M2.00016 48.6917V49.6917H1.00016V48.6917H2.00016ZM69.6934 48.6917H70.6934V49.6917H69.6934V48.6917ZM2.00016 48.1041H1.00016V47.1041H2.00016V48.1041ZM2.77991 48.1041H3.77991V49.1041H2.77991V48.1041ZM2.77991 45.5253H1.77991V44.5253H2.77991V45.5253ZM6.03651 45.5253V44.5253H7.03651V45.5253H6.03651ZM6.03651 46.6678V47.6678H5.03651V46.6678H6.03651ZM6.40344 46.6678V45.6678H7.40344V46.6678H6.40344ZM6.40344 47.0269V48.0269H5.40344V47.0269H6.40344ZM7.32079 47.0269H8.32079V48.0269H7.32079V47.0269ZM7.32079 42.8485H6.32079V41.8485H7.32079V42.8485ZM8.14641 42.8485H9.14641V43.8485H8.14641V42.8485ZM8.14641 37.2666H7.14641V35.6478L8.594 36.3723L8.14641 37.2666ZM12.3203 39.3557L12.7679 38.4615L13.3203 38.738V39.3557H12.3203ZM12.3203 40.4982V41.4982H11.3203V40.4982H12.3203ZM12.6414 40.4982V39.4982H13.6414V40.4982H12.6414ZM12.6414 46.4067V47.4067H11.6414V46.4067H12.6414ZM13.1001 46.4067H14.1001V47.4067H13.1001V46.4067ZM13.1001 44.6439H12.1001V43.6439H13.1001V44.6439ZM13.9716 44.6439H14.9716V45.6439H13.9716V44.6439ZM13.9716 40.792H12.9716V39.792H13.9716V40.792ZM15.1641 40.792H16.1641V41.792H15.1641V40.792ZM15.1641 34.6225H14.1641V32.8284L15.6901 33.7719L15.1641 34.6225ZM17.962 36.3526L18.488 35.502L18.962 35.7952V36.3526H17.962ZM17.962 37.8215V38.8215H16.962V37.8215H17.962ZM19.2922 37.8215V36.8215H20.2922V37.8215H19.2922ZM19.2922 39.6495V40.6495H18.2922V39.6495H19.2922ZM21.4021 39.6495H22.4021V40.6495H21.4021V39.6495ZM21.4021 24.8948H20.4021V24.2819L20.9482 24.0038L21.4021 24.8948ZM30.1169 20.4553L29.663 19.5643L29.8769 19.4553H30.1169V20.4553ZM30.8508 20.4553V19.4553H31.8508V20.4553H30.8508ZM30.8508 41.9672V42.9672H29.8508V41.9672H30.8508ZM32.1351 41.9672H33.1351V42.9672H32.1351V41.9672ZM32.1351 26.2985H31.1351V25.2985H32.1351V26.2985ZM35.0706 26.2985V25.2985H36.0706V26.2985H35.0706ZM35.0706 29.0405V30.0405H34.0706V29.0405H35.0706ZM35.3917 29.0405V28.0405H36.3917V29.0405H35.3917ZM35.3917 30.1504V31.1504H34.3917V30.1504H35.3917ZM37.0888 30.1504V29.1504H38.0888V30.1504H37.0888ZM37.0888 36.3526V37.3526H36.0888V36.3526H37.0888ZM40.8499 36.3526V35.3526H41.8499V36.3526H40.8499ZM40.8499 44.6439V45.6439H39.8499V44.6439H40.8499ZM41.7214 44.6439H42.7214V45.6439H41.7214V44.6439ZM41.7214 23.4259H40.7214V22.4259H41.7214V23.4259ZM43.7854 23.4259H44.7854V24.4259H43.7854V23.4259ZM43.7854 11.3479H42.7854V9.32416L44.3929 10.5536L43.7854 11.3479ZM49.9317 16.0485L50.5392 15.2542L50.9317 15.5544V16.0485H49.9317ZM49.9317 23.9808V24.9808H48.9317V23.9808H49.9317ZM52.7755 23.9808V22.9808H53.7755V23.9808H52.7755ZM52.7755 28.4203V29.4203H51.7755V28.4203H52.7755ZM55.6651 28.4203V27.4203H56.6651V28.4203H55.6651ZM55.6651 37.2339V38.2339H54.6651V37.2339H55.6651ZM56.9953 37.2339L57.9953 37.2271L58.0021 38.2339H56.9953V37.2339ZM56.9953 6.64727L55.9966 6.59624L56.0253 6.03459L56.5201 5.76737L56.9953 6.64727ZM67.4531 1L66.9779 0.120097L67.2003 0H67.4531V1ZM68.508 1V0H69.508V1H68.508ZM68.508 45.4926V46.4926H67.508V45.4926H68.508ZM69.6934 45.4926V44.4926H70.6934V45.4926H69.6934ZM2.00016 48.6917V47.6917H69.6934V48.6917V49.6917H2.00016V48.6917ZM2.00016 48.1041H3.00016V48.6917H2.00016H1.00016V48.1041H2.00016ZM2.77991 48.1041V49.1041H2.00016V48.1041V47.1041H2.77991V48.1041ZM2.77991 45.5253H3.77991V48.1041H2.77991H1.77991V45.5253H2.77991ZM6.03651 45.5253V46.5253H2.77991V45.5253V44.5253H6.03651V45.5253ZM6.03651 46.6678H5.03651V45.5253H6.03651H7.03651V46.6678H6.03651ZM6.40344 46.6678V47.6678H6.03651V46.6678V45.6678H6.40344V46.6678ZM6.40344 47.0269H5.40344V46.6678H6.40344H7.40344V47.0269H6.40344ZM7.32079 47.0269V48.0269H6.40344V47.0269V46.0269H7.32079V47.0269ZM7.32079 42.8485H8.32079V47.0269H7.32079H6.32079V42.8485H7.32079ZM8.14641 42.8485V43.8485H7.32079V42.8485V41.8485H8.14641V42.8485ZM8.14641 37.2666H9.14641V42.8485H8.14641H7.14641V37.2666H8.14641ZM12.3203 39.3557L11.8728 40.25L7.69882 38.1608L8.14641 37.2666L8.594 36.3723L12.7679 38.4615L12.3203 39.3557ZM12.3203 40.4982H11.3203V39.3557H12.3203H13.3203V40.4982H12.3203ZM12.6414 40.4982V41.4982H12.3203V40.4982V39.4982H12.6414V40.4982ZM12.6414 46.4067H11.6414V40.4982H12.6414H13.6414V46.4067H12.6414ZM13.1001 46.4067V47.4067H12.6414V46.4067V45.4067H13.1001V46.4067ZM13.1001 44.6439H14.1001V46.4067H13.1001H12.1001V44.6439H13.1001ZM13.9716 44.6439V45.6439H13.1001V44.6439V43.6439H13.9716V44.6439ZM13.9716 40.792H14.9716V44.6439H13.9716H12.9716V40.792H13.9716ZM15.1641 40.792V41.792H13.9716V40.792V39.792H15.1641V40.792ZM15.1641 34.6225H16.1641V40.792H15.1641H14.1641V34.6225H15.1641ZM17.962 36.3526L17.4361 37.2031L14.6382 35.473L15.1641 34.6225L15.6901 33.7719L18.488 35.502L17.962 36.3526ZM17.962 37.8215H16.962V36.3526H17.962H18.962V37.8215H17.962ZM19.2922 37.8215V38.8215H17.962V37.8215V36.8215H19.2922V37.8215ZM19.2922 39.6495H18.2922V37.8215H19.2922H20.2922V39.6495H19.2922ZM21.4021 39.6495V40.6495H19.2922V39.6495V38.6495H21.4021V39.6495ZM21.4021 24.8948H22.4021V39.6495H21.4021H20.4021V24.8948H21.4021ZM30.1169 20.4553L30.5708 21.3464L21.856 25.7858L21.4021 24.8948L20.9482 24.0038L29.663 19.5643L30.1169 20.4553ZM30.8508 20.4553V21.4553H30.1169V20.4553V19.4553H30.8508V20.4553ZM30.8508 41.9672H29.8508V20.4553H30.8508H31.8508V41.9672H30.8508ZM32.1351 41.9672V42.9672H30.8508V41.9672V40.9672H32.1351V41.9672ZM32.1351 26.2985H33.1351V41.9672H32.1351H31.1351V26.2985H32.1351ZM35.0706 26.2985V27.2985H32.1351V26.2985V25.2985H35.0706V26.2985ZM35.0706 29.0405H34.0706V26.2985H35.0706H36.0706V29.0405H35.0706ZM35.3917 29.0405V30.0405H35.0706V29.0405V28.0405H35.3917V29.0405ZM35.3917 30.1504H34.3917V29.0405H35.3917H36.3917V30.1504H35.3917ZM37.0888 30.1504V31.1504H35.3917V30.1504V29.1504H37.0888V30.1504ZM37.0888 36.3526H36.0888V30.1504H37.0888H38.0888V36.3526H37.0888ZM40.8499 36.3526V37.3526H37.0888V36.3526V35.3526H40.8499V36.3526ZM40.8499 44.6439H39.8499V36.3526H40.8499H41.8499V44.6439H40.8499ZM41.7214 44.6439V45.6439H40.8499V44.6439V43.6439H41.7214V44.6439ZM41.7214 23.4259H42.7214V44.6439H41.7214H40.7214V23.4259H41.7214ZM43.7854 23.4259V24.4259H41.7214V23.4259V22.4259H43.7854V23.4259ZM43.7854 11.3479H44.7854V23.4259H43.7854H42.7854V11.3479H43.7854ZM49.9317 16.0485L49.3242 16.8428L43.1779 12.1422L43.7854 11.3479L44.3929 10.5536L50.5392 15.2542L49.9317 16.0485ZM49.9317 23.9808H48.9317V16.0485H49.9317H50.9317V23.9808H49.9317ZM52.7755 23.9808V24.9808H49.9317V23.9808V22.9808H52.7755V23.9808ZM52.7755 28.4203H51.7755V23.9808H52.7755H53.7755V28.4203H52.7755ZM55.6651 28.4203V29.4203H52.7755V28.4203V27.4203H55.6651V28.4203ZM55.6651 37.2339H54.6651V28.4203H55.6651H56.6651V37.2339H55.6651ZM56.9953 37.2339V38.2339H55.6651V37.2339V36.2339H56.9953V37.2339ZM56.9953 6.64727L57.994 6.6983C57.8491 9.53296 57.9339 28.2028 57.9953 37.2271L56.9953 37.2339L55.9953 37.2407C55.9343 28.2678 55.8479 9.50678 55.9966 6.59624L56.9953 6.64727ZM67.4531 1L67.9282 1.8799L57.4704 7.52717L56.9953 6.64727L56.5201 5.76737L66.9779 0.120097L67.4531 1ZM68.508 1V2H67.4531V1V0H68.508V1ZM68.508 45.4926H67.508V1H68.508H69.508V45.4926H68.508ZM69.6934 45.4926V46.4926H68.508V45.4926V44.4926H69.6934V45.4926ZM69.6934 45.4926H70.6934V48.6917H69.6934H68.6934V45.4926H69.6934Z" fill="#DAEDFF"/>
</g>
<defs>
<filter id="filter0_i_6975_2941" x="1" y="0" width="69.6934" height="53.6919" filterUnits="userSpaceOnUse" color-interpolation-filters="sRGB">
<feFlood flood-opacity="0" result="BackgroundImageFix"/>
<feBlend mode="normal" in="SourceGraphic" in2="BackgroundImageFix" result="shape"/>
<feColorMatrix in="SourceAlpha" type="matrix" values="0 0 0 0 0 0 0 0 0 0 0 0 0 0 0 0 0 0 127 0" result="hardAlpha"/>
<feOffset dy="4"/>
<feGaussianBlur stdDeviation="2"/>
<feComposite in2="hardAlpha" operator="arithmetic" k2="-1" k3="1"/>
<feColorMatrix type="matrix" values="0 0 0 0 0 0 0 0 0 0 0 0 0 0 0 0 0 0 0.25 0"/>
<feBlend mode="normal" in2="shape" result="effect1_innerShadow_6975_2941"/>
</filter>
</defs>
</svg>
